# xmcd
#
# Track frame offsets:
#   150
#   26883
#   40985
#   57148
#   75948
#   91276
#   102966
#   120342
#   137310
#   148794
#   161822
#   171161
#   189018
#   202481
#
# Disc length: 2868 seconds
#
# Revision: 0
# Processed by: cddbd v1.5.1PL0 Copyright (c) Steve Scherf et al.
# Submitted via: uFREEDB 1.6.0
#
DISCID=b70b320e
DTITLE=Various Artisit - Mystic Love Essential
DYEAR=1900
DGENRE=Easy Listening
TTITLE0=My Funny Valentine
TTITLE1=Dream a little dream of me
TTITLE2=Let's Fall in Love
TTITLE3=Let's Call the Whole thing off
TTITLE4=The Lady is a Tramp
TTITLE5=Irresistable
TTITLE6=My Funny Valentine
TTITLE7=Making Whoopy
TTITLE8=Paper Moon
TTITLE9=How Long has This been Going On
TTITLE10=April In Paris
TTITLE11=Someone To Whach Over Me
TTITLE12=Volare
TTITLE13=Alfie
EXTD=
EXTT0=
EXTT1=
EXTT2=
EXTT3=
EXTT4=
EXTT5=
EXTT6=
EXTT7=
EXTT8=
EXTT9=
EXTT10=
EXTT11=
EXTT12=
EXTT13=
PLAYORDER=
